<svg xmlns="http://www.w3.org/2000/svg" width="30.878" height="33.55" viewBox="0 0 30.878 33.55">
  <g id="box" transform="translate(-2.509 -1.203)">
    <path id="Path_2394" data-name="Path 2394" d="M31.4,23.921V11.966A2.989,2.989,0,0,0,29.9,9.381L19.442,3.4a2.988,2.988,0,0,0-2.988,0L5.994,9.381A2.989,2.989,0,0,0,4.5,11.966V23.921a2.989,2.989,0,0,0,1.494,2.585l10.459,5.978a2.988,2.988,0,0,0,2.988,0L29.9,26.507A2.989,2.989,0,0,0,31.4,23.921Z" transform="translate(0 0)" fill="none" stroke="#000" stroke-linecap="round" stroke-linejoin="round" stroke-width="3.5"/>
    <path id="Path_2395" data-name="Path 2395" d="M4.905,10.44l13.058,7.284L31.021,10.44" transform="translate(-0.016 0.057)" fill="none" stroke="#000" stroke-linecap="round" stroke-linejoin="round" stroke-width="3.5"/>
    <path id="Path_2396" data-name="Path 2396" d="M18,32.539V18" transform="translate(-0.052 0.464)" fill="none" stroke="#000" stroke-linecap="round" stroke-linejoin="round" stroke-width="3.5"/>
  </g>
</svg>
