<svg xmlns="http://www.w3.org/2000/svg" width="488.588" height="390.554" viewBox="0 0 488.588 390.554">
  <g id="logoIcon" transform="translate(0)">
    <path id="Path_17114" data-name="Path 17114" d="M914.518,675.537c-13.119-6.666-26.272-13.265-39.324-20.057a8.549,8.549,0,0,0-6.825-.65q-55.868,15.386-111.8,30.541c-1.242.337-2.6,1.589-4.038.316-1.053-1.729-.975-3.716-1.247-5.615-5.417-37.783-10.291-75.642-15.617-113.437a11.8,11.8,0,0,1-.046-4.676,10.764,10.764,0,0,1,2.98-3.563c7.891-7.572,15.032-15.929,23.7-22.693,2.03-.866,4.045-.179,6.019.168,4.36.768,8.854.613,13.128,1.934,6.358,3.821,12.981,7.219,18.994,11.617,6.15,7.2,11.059,15.287,16.415,23.046,17.8,25.788,35.8,51.442,53.47,77.32.141.209.337.348.894.557,1.156-4.66,1.6-9.4,2.334-14.076,3.721-23.652,7.023-47.368,10.709-71.028.875-5.611,1.759-11.227,2.524-16.857.343-2.517,1.552-4.008,4.224-4.039,7.68.864,15.222,2.59,22.869,3.652a5.9,5.9,0,0,1,4,2.242c4.762,9.025,10.8,17.38,14.34,27.067.37,3.053-.255,6.05-.783,8.992-5.1,28.412-9.261,56.978-14.172,85.421C916.986,673.357,917.287,675.607,914.518,675.537Z" transform="translate(-652.662 -295.693)" fill="#0e1011"/>
    <path id="Path_17115" data-name="Path 17115" d="M948.242,532.676c-1.513-2.442-4.136-2.093-6.423-2.483-6.813-1.166-13.642-2.241-20.464-3.352-1.817-.341-3.55-.807-4.3-2.791-5.686-10.346-10.9-20.933-15.971-31.588-1.657-3.479-3.658-6.783-5.163-10.332-2.081-4.907-1.089-6.43,4.361-6.781a7.62,7.62,0,0,0,3.929-.085c11.805-2.707,23.745-4.748,35.6-7.21,4.978-1.035,9.109-.067,13.474,2.348,16.741,9.261,33.872,17.8,50.635,27.026,2.014,1.109,3.816,2.555,6.685,3.879-11.6-6.48-21.766-13.64-32.191-20.394-4.776-3.093-9.61-6.1-14.276-9.355-1.342-.936-3.227-1.733-3.068-3.731.166-2.075,2.223-2.414,3.74-2.983,16.22-6.093,31.959-13.357,48.077-19.7,4.281-1.684,8.325-3.915,12.741-5.3a10.008,10.008,0,0,1,6.025-.276c19.9,5.717,39.951,10.912,59.879,16.54,7.453,2.106,14.991,3.909,22.337,6.384,1.09.368,2.149.008,3.193.289a227.848,227.848,0,0,1,21.553,7.392c-1.55,4.166-4.427,7.432-7.352,10.634-1.364,1.495-3.362,1.087-5.153,1.135-1.329.034-2.659.021-3.988-.024-.277.085-.274.218.021.379,5.743,3.153,5.877,3.7,1.753,8.742-5.968,7.3-11.306,15.079-17.22,22.418-1.211,1.5-2.25,3.164-4.092,4.032-7.909,1.761-15.984,2.456-23.956,3.813-6.664,1.134-13.4,1.84-20.047,3.126-12.242-1.4-24.585-1.72-36.8-3.392-2.323-1.239-2-3.633-2.408-5.684-.44-2.231.141-5.235-1.425-6.532-2.07-1.714-3.977,1.206-5.946,2.032a9.113,9.113,0,0,1-7.98-.246c-1.613-.776-3.343-1.276-4.961-2.042,1.3.906,2.325,2.093,3.523,3.079,1.887,1.555,1.744,3.25-.337,4.314-6.1,3.118-11.888,6.787-18.019,9.847C972.16,527.738,960.028,529.3,948.242,532.676Z" transform="translate(-683.295 -277.247)" fill="#36383d"/>
    <path id="Path_17116" data-name="Path 17116" d="M700.718,552.742c-.406,5.94,1.167,11.677,1.873,17.5,1.406,11.584,3.084,23.136,4.663,34.7q1.928,14.125,3.886,28.246c1.373,10.012,2.794,20.018,4.082,30.041.593,4.617,2,9.155,1.437,13.893-10.483-5.667-20.986-11.3-31.442-17.01-10.787-5.9-21.529-11.877-32.29-17.821-3.05-.686-4.319-3.459-6.147-5.476-2.72-3-5.385-6.058-8.1-9.067-1.661-4.543-2.643-9.289-4.13-13.889-1.272-3.933-2.769-1.981-6.575,0-11.061-10.454-11.752-16.52-10.943-18.6,2.054-5.268,4.374-10.432,6.588-15.639,2.264-1.152,2.18-3.669,3.108-5.555,8.126-16.52,16.527-32.916,24.071-49.708,3.472-7.729,4.755-16.25,7.023-24.414.552-1.984,1-4,1.732-5.928.511-1.339.814-3.05,2.469-3.324,1.77-.292,2.776,1.2,3.8,2.4a3.986,3.986,0,0,1,.68,1.28c1.071,4.248-.265,8.43-.462,12.63a214.633,214.633,0,0,1-2.54,24.253c.868-4.211,1.143-10.034,2-15.77.855-5.7,1.129-11.533,3.2-17.011,1.768-1.268,3.051.073,4.152,1.025,4.583,3.968,8.713,8.41,12.915,12.773a7.9,7.9,0,0,1,1.541,2.862c4.4,11.935,8.665,23.921,13.127,35.833A4.895,4.895,0,0,1,700.718,552.742Z" transform="translate(-616.789 -287.122)" fill="#36383d"/>
    <path id="Path_17117" data-name="Path 17117" d="M1050.773,539.553q17.722,1.456,35.442,2.935a12.94,12.94,0,0,1,2.4.679c1.9.031,2.545,1.7,3.465,2.84,18.284,22.749,36.718,45.375,55.07,68.067a16.246,16.246,0,0,1,1.792,2.734c.792,2.628,2.858,5.014,1.546,8.045-3.247,1.824-7.027,1.472-10.724,2.547.8,2.462,2.947,3.775,4.371,5.575a17.551,17.551,0,0,1,3.776,8.447c1.174,7.508,2.387,15.014,4.039,22.444a12.419,12.419,0,0,1,.117,4.271c-.186,1.076-.083,2.523-1.875,2.4-3.91-3.41-7.924-6.71-11.685-10.277-1.724-1.635-3.187-1.843-5.424-1.177q-38,11.3-76.075,22.357c-1.152.337-2.4,1.513-3.6.012-.177-6.92.938-13.753,1.584-20.6,1.385-14.7,2.6-29.411,4.1-44.1.246-2.4,1.151-4.726.793-7.186-.573-10.986-3.083-21.7-4.526-32.564-1.365-10.279-3.329-20.46-4.659-30.738C1050.413,544.057,1049.625,541.774,1050.773,539.553Z" transform="translate(-713.112 -296.514)" fill="#0e1011"/>
    <path id="Path_17118" data-name="Path 17118" d="M764.378,511.529c-6.517-.974-12.984-2.4-19.633-2.209-13.288-5.212-26.353-10.974-39.7-16.037-2.787-1.057-4.25-3.5-6.118-5.527-3.679-4-7.578-7.816-10.381-12.538.331-2.2,2.467-2.715,3.875-4.155-2.956-.15-5.868-.635-7.046,3.084-.148.468-.707.562-1.193.249-1.021-2.409-1.3-5.186-3.487-7.011-.717-.6-1.209-1.753-2.293-1.522-1.149.245-1.019,1.508-1.257,2.389-2.7,10.014-5.578,19.975-8.423,29.948a39.821,39.821,0,0,1-2.549,6.757c-.27.548-.694.991-1.426.76q-7.3-13.434-14.59-26.87c.648-4.171,2.293-8.044,3.461-11.915a48.65,48.65,0,0,1-4.125,5.242c-.581.683-1.268,1.552-2.419.873-1.781-1.707-1.934-3.534-.935-5.82,1.78-4.075,3.272-8.277,4.884-12.425,3.437-5.852,5.392-12.354,8.053-18.543,5.392-12.536,11.265-24.858,16.541-37.446,2.843-6.785,4.477-6.925,9.457-1.553a41.952,41.952,0,0,0,3.1,3.545,8.958,8.958,0,0,1,3.043,7.774c-.337,6.77,1.168,13.481.728,20.261a4.583,4.583,0,0,0,.75,2.755c-1.168,5.355-2.958,10.547-4.3,15.863-.645,2.558-1.131,5.157-1.947,7.676-.318.982-.82,2.147.712,2.7,6.385-1.505,12.37-4.14,18.439-6.463,12.1-4.63,24.365-8.812,36.4-13.622a7.768,7.768,0,0,1,4.642-.045c17.066,3.592,34.1,7.33,51.172,10.895a9.123,9.123,0,0,1,6.553,4.632,21.784,21.784,0,0,0,5.3,6.82,37.968,37.968,0,0,1,7.4,11.965,2.516,2.516,0,0,1-.032,1.043A231.535,231.535,0,0,1,798.2,491.977c-10.227,6.9-21.21,12.517-31.786,18.825A5.007,5.007,0,0,1,764.378,511.529Z" transform="translate(-635.403 -268.456)" fill="#36383d"/>
    <path id="Path_17119" data-name="Path 17119" d="M1032.9,536.323q2.183,14.239,4.368,28.476c1.305,8.428,2.811,16.829,3.9,25.284.689,5.356,2.181,10.628,1.887,16.1-7.214,18.963-14.511,37.893-22.13,56.7a3.213,3.213,0,0,1-1.187,1.766c-11.65,1.7-23.3,3.372-34.946,5.107-8.23,1.227-16.445,2.555-24.674,3.8-1.011.153-2.152.664-3.025-.425a2.641,2.641,0,0,0,1.634-2.2c3.147-20.169,6.272-40.343,9.516-60.5,1.393-8.655,3.115-17.257,4.562-25.9.574-3.427.808-6.912,1.2-10.371,1.048-4.128,4.317-6.884,6.451-10.341,4.3-6.96,9.153-13.555,13.7-20.355.6-.893,1.2-1.833,2.41-2.015,4.605-4.2,10.389-6.421,15.749-9.344,3.622-1.976,3.66-1.884.572-4.558-1.541-1.335-3.053-2.7-4.578-4.056l.528-.754a55.1,55.1,0,0,1,6.625,2.756c3.84,2.19,7.265,1.567,10.659-.857a27.142,27.142,0,0,1,2.514-1.412c1.582-.891,2.527-.454,2.765,1.352C1031.908,528.489,1032.4,532.407,1032.9,536.323Z" transform="translate(-695.237 -293.284)" fill="#1a1c1d"/>
    <path id="Path_17120" data-name="Path 17120" d="M1169.943,612.685c-.086-2.867-1.763-5.3-2.192-8.074a24.713,24.713,0,0,1-2.39-7.53c-4.332-22.8-8.658-45.6-12.786-68.44-.275-1.526-.81-3.071-.057-4.618q10.573-13.7,21.15-27.39c2.432-3.137,2.381-3.514-1.188-5.5-1.147-.637-2.305-1.252-3.964-2.153a10.6,10.6,0,0,1,6.253-.521c3.968.587,6.248-1.392,8.26-4.346,1.546-2.271,3.311-4.392,4.979-6.58q9.855,18.927,19.7,37.859c3.72,7.183,7.206,14.49,11.1,21.574a19.9,19.9,0,0,1,2.461,10.344c-.157,10.16-.071,20.323-.05,30.485a6.419,6.419,0,0,1-1.033,4.1q-14.874,20.541-29.664,41.144c-1.387.422-1.873-.784-2.592-1.491a17.822,17.822,0,0,1-3.017-3.568c-2.662-4.552-6.229-6.721-11.6-4.914C1172.251,613.43,1170.956,613.759,1169.943,612.685Z" transform="translate(-732.693 -284.603)" fill="#1a1c1d"/>
    <path id="Path_17121" data-name="Path 17121" d="M765.552,325.742l10.168-6.482c2.116-.158,3.8-1.393,5.642-2.241,10.747-4.938,21.272-10.348,32.094-15.128,3.385-1.5,6.085-3.427,7.558-7.226,2.571-6.636,5.687-13.062,8.425-19.642,1.789-4.3,2.788-4.846,7.169-3.278,4.851,1.736,9.961,2.888,14.3,5.88.6,1.247.044,2.375-.43,3.472-2.878,6.657-5.376,13.468-8.193,20.152-1.635,3.878-4.523,6.4-6.825,8.4,6.894-3.5,8.374-11.581,11.544-18.474,1.459-3.172,2.942-6.362,4.191-9.642a4.051,4.051,0,0,1,2.576-2.854c3.369-.15,6.4,1.27,9.4,2.4,9.486,3.565,19.1,6.77,28.607,10.272,3.765,1.387,6.695,3.222,7.752,7.269a6.29,6.29,0,0,0,5.439,5.05c.933,1.181-.136,1.588-.869,1.711a6.6,6.6,0,0,0-4.655,3.158c-3.017,4.795-7.965,5.371-13.12,6.016,5.514,1.4,6,2.572,2.71,6.6-10.4,12.742-21.009,25.312-30.965,38.409a3.324,3.324,0,0,1-1.416,1.107c-3.264,1.013-6.449-.305-9.677-.311-3.493-.005-7-.238-10.472.048a22.246,22.246,0,0,1-14.3-3.914c-1.732-1.121-3.8-1.524-5.505-2.676-8.943-5.009-18.216-9.4-27.256-14.23-7.337-3.925-14.683-7.833-22.122-11.564C766.461,327.588,765.123,327.281,765.552,325.742Z" transform="translate(-658.437 -244.928)" fill="#36383d"/>
    <path id="Path_17122" data-name="Path 17122" d="M1022.3,306.212q20.529,32.559,41.053,65.119c8.3,13.182,16.4,26.489,24.937,39.518,2.258,3.448,2.039,5.714-.882,8.151-1.31,2.22-3.186,1.311-4.815.7-9.865-3.7-20.068-6.45-29.853-10.325a13.317,13.317,0,0,0-13.024,1.177c-3.9,2.462-8.136,4.288-12.231,6.38a6.1,6.1,0,0,1-3.778,1.057,2.86,2.86,0,0,1-1.389-.923c-7.635-14.168-15.7-28.1-23.355-42.264a10.044,10.044,0,0,1-1.179-3.038c-1.3-9.391-2.652-18.773-2.911-28.264,1.207-4.437,4.411-7.73,6.793-11.467,5.134-8.053,10.815-15.748,15.918-23.831C1018.612,306.574,1019.64,304.28,1022.3,306.212Z" transform="translate(-702.492 -251.56)" fill="#1a1c1d"/>
    <path id="Path_17123" data-name="Path 17123" d="M1000.039,300.894c-1.776-.748-2.753.434-3.553,1.632q-11.2,16.778-22.323,33.609a11.421,11.421,0,0,0-.646,1.293c-3.872,1.657-8.092.573-12.071,1.521-1.414.337-2.934.293-3.9,1.547-3.308,4.276-6.813,8.424-9.077,13.412-2.841,3.539-7.236,2.941-10.952,3.794-8.217,1.886-16.266,4.433-24.506,6.147-8.447,1.757-16.777,4.351-25.535,4.306a39.738,39.738,0,0,0-6.916-4.759c-.781-.414-1.789-.8-1.559-2.049,1.776-4.621,5.5-7.854,8.461-11.594,7.7-9.729,15.687-19.237,23.573-28.821,1.457-1.771,1.806-3.106-1.03-3.7-1.4-.294-2.745-.819-4.5-1.359,2.309-.617,4.232-1.522,6.173-1.563a9.217,9.217,0,0,0,8.182-4.4,9.9,9.9,0,0,1,7.206-4.527c4.812-.776,6.583-4.506,8.168-8.419a6.865,6.865,0,0,1,4.179-3.205c13.1-4.847,26.151-9.81,39.231-14.7,2.078-.778,4.216-2.057,6.548-.616A120.107,120.107,0,0,1,998.9,298.825Z" transform="translate(-680.233 -246.243)" fill="#0e1011"/>
    <path id="Path_17124" data-name="Path 17124" d="M978.618,272.775c-1.235-.875-2.431-.586-3.752-.083q-17.393,6.635-34.825,13.17c-2.36.888-4.726,1.777-7.137,2.51a6.219,6.219,0,0,0-3.719,2.607,58.642,58.642,0,0,0-11.849-1.293c-5.343-.05-9.912-2.9-14.741-4.686-10.064-3.726-19.843-8.172-29.718-12.372-1.1-.469-2.31-.806-2.795-2.1.334-1.455,1.6-1.194,2.6-1.379,2.683-.5,5.3-1.286,7.947-1.912.47-.113-.166-.775.057-.345.059.114,0,.2-.177.253a79.307,79.307,0,0,1-12.917,2.82c-7.537-2.378-14.666-5.766-21.9-8.9-.559-.242-1.021-.624-.855-1.361a195.558,195.558,0,0,1,22.41-4.434c8.916-.557,17.641-2.5,26.477-3.649,16.923-2.2,33.8-4.772,50.725-6.97,2.271-.295,4.369-.289,5.884,1.774.743,1.745-.593,2.381-1.711,3.07a36.138,36.138,0,0,1-7.56,3.795c2.776-1.278,6.877-2.581,10.893-4.123,2.243-.861,4.449-1.947,6.972-1.662q13.336,9.21,26.66,18.435c1.119.778,2.649,1.331,2.516,3.151.263.354.085.857-.188.79C984.215,268.974,981.5,271.14,978.618,272.775Z" transform="translate(-673.671 -239.853)" fill="#36383d"/>
    <path id="Path_17126" data-name="Path 17126" d="M685.536,375.332c3.588-2.349,7.614-3.753,11.553-5.344,4.994-.968,9.5-3.388,14.339-4.846,10.067-3.03,19.906-6.774,29.895-10.059.46-.152.918-.313,1.39-.421,3.2-.731,4.22.192,3.262,3.31-1.456,4.743-2.638,9.567-4.135,14.289-2.232,7.036-4.221,14.141-6.359,21.2-.341,1.127-.311,2.451-1.561,3.127-4.259-.547-7.916,1.7-11.866,2.586-1.967.443-3.762,1.707-5.924,1.236-4.826-2.288-10.037-3.461-15.075-5.129a9.209,9.209,0,0,1-4.84-2.968c-3.6-4.715-6.62-9.824-10.12-14.6A2.607,2.607,0,0,1,685.536,375.332Z" transform="translate(-643.066 -260.961)" fill="#36383d"/>
    <path id="Path_17127" data-name="Path 17127" d="M1005.467,441.71a71.4,71.4,0,0,0,14.611-7.125c5.048-3.01,9.608-4.18,15.5-1.759,9.6,3.939,19.6,6.893,29.44,10.223,1.434.484,2.921,1.382,4.446.158-.286,2.16,1.64,1.752,2.666,2.106,14.849,5.117,29.726,10.151,44.592,15.219a13.665,13.665,0,0,1,1.59.776,4.021,4.021,0,0,1-3.451.566c-7.3-2.45-14.782-4.258-22.21-6.262-15.917-4.293-31.794-8.727-47.686-13.108-2.787-.769-5.73-1.214-8.319-2.416-5.835-2.709-10.885-.486-16.129,1.74-14.536,6.173-29.125,12.218-43.707,18.283-4.01,1.668-8.04,3.293-12.108,4.815-2.6.974-2.36,1.739-.3,3.27,7.17,5.315,14.913,9.745,22.327,14.682,8.714,5.8,17.573,11.386,26.359,17.082.28.182.439.55,1.057,1.354-4.9-1.514-8.555-4.237-12.493-6.3q-25.131-13.165-50.043-26.742c-4.928-2.684-9.65-.827-14.32.068-10.973,2.105-22.014,3.919-32.848,6.714-1.032.266-2.182.438-2.985-.65.048-1.455,1.3-1.617,2.251-1.978q19.657-7.432,39.331-14.815a8.547,8.547,0,0,1,8.529,1.2c8,5.649,8.068,5.655,16.68,1.233,11.279-5.792,22.517-11.665,33.822-17.406C1003.157,442.091,1004.159,441.372,1005.467,441.71Z" transform="translate(-684.554 -275.767)" fill="#4c4d53"/>
    <path id="Path_17128" data-name="Path 17128" d="M735.666,393.433c3.887-13.086,7.752-26.177,11.685-39.249.581-1.93.282-2.554-1.746-1.784-7.272,2.764-14.776,4.84-22.049,7.641-7.5,2.886-15.264,5.066-22.909,7.567a1.066,1.066,0,0,1-1.456-.626q20.64-9.318,41.281-18.632c.55-.249,1.094-.517,1.661-.723,4.526-1.647,8.955-3.4,10.152-8.858,6.015,4.024,12.75,6.7,19.07,10.162,10.541,5.776,21.251,11.243,31.889,16.841.161,1.116-.673,1.223-1.427,1.415a123,123,0,0,1-16.442-6.59c-8.347-3.862-16.717-7.676-25.046-11.574-2.4-1.125-3.228.084-3.915,2.1-4.952,14.555-10.316,28.963-15.469,43.446-4.058,11.4-8.413,22.705-12.043,34.26-.277.88-.948,1.7-.406,3.047a106.3,106.3,0,0,0,15.416-7.032c6.68-3.8,12.838-3.721,19.992-1.458,14.648,4.635,29.674,8.025,44.4,12.447a9.738,9.738,0,0,1,4.655,2.664c2.449,3.677,5.65,6.953,6.282,11.615-1.682-.7-3.866-2.893-5.76-6.57-1.411-2.74-3.35-3.887-6.392-4.508-14.933-3.048-29.789-6.47-44.7-9.648-4.961-1.058-9.63-1.852-14.932.425-12.229,5.255-24.894,9.5-37.382,14.154-3.816,1.423-7.638,2.833-11.444,4.286-.839.321-1.6.613-2.249-.281.486-1.645,2.006-1.958,3.3-2.536,6.73-3,13.367-6.192,20.01-9.376a6.769,6.769,0,0,0,3.787-4.521c3.417-11.458,6.6-22.984,10.2-34.389C734.114,395.789,734.21,394.245,735.666,393.433Z" transform="translate(-645.171 -257.954)" fill="#4b4d52"/>
    <path id="Path_17131" data-name="Path 17131" d="M1034.627,684.482c.179-4.12,2.495-7.541,3.9-11.219,5.8-15.18,11.947-30.228,17.932-45.338.326-.827.611-1.564,1.487-1.907-.915,9.189-1.863,18.375-2.73,27.569-.6,6.336-1.057,12.686-1.623,19.026-.716,8.011-1.478,16.015-2.222,24.024a1.658,1.658,0,0,1-.95,1.424A204.8,204.8,0,0,1,1034.627,684.482Z" transform="translate(-710.127 -313.118)" fill="#36383d"/>
    <path id="Path_17135" data-name="Path 17135" d="M679.178,380.3c3.73,5.337,7.522,10.633,11.154,16.035a6.865,6.865,0,0,0,4.3,2.94c4.422,1.2,8.767,2.67,13.144,4.03.925.288,1.934.478,1.981,1.755.489,1.34-.331,2.325-.98,3.3-4.261,6.4-8.765,12.64-12.836,19.17-.477.764-.967,1.741-2.2,1.5-1.611.631-1.535-.461-1.469-1.47.495-7.613-1.139-15.16-.708-22.765a6.023,6.023,0,0,0-2.035-5.127,75.587,75.587,0,0,1-6.658-7.029c-1.459-1.779-2.15-1.348-3.133.322-2.762,4.7-4.384,9.9-6.649,14.81-2.516,5.459-5.066,10.906-7.475,16.414-3.31,7.571-6.5,15.2-9.75,22.793-.848,1.981-1.432,4.148-3.531,5.3,5.71-15.542,11.355-31.11,17.155-46.618C672.655,397.183,675.406,388.546,679.178,380.3Z" transform="translate(-636.709 -265.931)" fill="#4a4c52"/>
    <path id="Path_17136" data-name="Path 17136" d="M1173.969,693.357c1.875-2.281.486-4.96.9-7.418-1.122-6.939.656-13.678,1.427-20.485a2.606,2.606,0,0,1,1.66-2.245c5.467-1.8,10.726-4.33,16.569-4.848,3,5.672,4.533,11.926,7.025,17.8.527,1.243-.192,1.724-1.074,2.262q-12.371,7.535-24.72,15.1C1175.093,693.938,1174.485,694.268,1173.969,693.357Z" transform="translate(-736.886 -319.33)" fill="#1a1c1d"/>
    <path id="Path_17138" data-name="Path 17138" d="M832.036,263.316l22.543,9.444c.883,1.8.117,2.892-1.554,3.59-5.089-1.828-10.273-3.436-15.231-5.571-2.724-1.173-3.749-.093-4.67,2.034-3.112,7.184-6.58,14.242-9.19,21.6-1.434,4.043-4.51,5.344-7.657,6.884-6.361,3.111-12.822,6.019-19.217,9.062-5.067,2.412-10.077,4.942-15.158,7.326-1.148.539-2.469,1.136-3.743.106,12.054-7.835,24.038-15.781,36.207-23.433a16.766,16.766,0,0,0,7-8.323c2.825-6.938,6.019-13.725,9.083-20.566C830.816,264.657,830.771,263.492,832.036,263.316Z" transform="translate(-660.873 -243.464)" fill="#4c4d52"/>
    <path id="Path_17139" data-name="Path 17139" d="M1191.548,655.49a77.745,77.745,0,0,1-14.37,4.9c-2.25.606-2.984,1.674-3.169,4.018-.49,6.235-1.382,12.439-2.115,18.656a69.579,69.579,0,0,1-3.4-17.227,25.168,25.168,0,0,0-8.512-16.887c-.658-.609-1.868-1.194-1.435-2.274.441-1.1,1.709-.493,2.612-.633,3.332-.515,6.665-1.007,10-1.508,7.62-2.615,13.481-.834,17.277,6.656.725,1.426,2.188,2.478,3.312,3.7A.576.576,0,0,1,1191.548,655.49Z" transform="translate(-733.907 -316.457)" fill="#37393f"/>
    <path id="Path_17140" data-name="Path 17140" d="M663.964,522.467c3.274-6.333,4.574-13.312,6.525-20.072,1.895-6.562,3.661-13.162,5.42-19.761.67-2.512,1.562-2.441,3.252-.711,2.569,2.629,5.081,5.182,4.5,9.294a.433.433,0,0,1-.063.677c-4.119-3.315-4.231-3.348-5.783,1.961-1.754,6.007-3.546,12.025-4.843,18.14-1.829,8.627-5.924,16.289-9.673,24.09-5.965,12.413-12.2,24.7-18.282,37.054-.469.953-.621,2.057-1.028,3.047-.45,1.093-.828,2.471-2.54,1.518q8.88-21.753,17.761-43.508Q661.6,528.337,663.964,522.467Z" transform="translate(-634.619 -285.207)" fill="#4b4d52"/>
    <path id="Path_17141" data-name="Path 17141" d="M955.589,246.262c-1.477-1.574-2.972-1.994-5.367-1.678-19.265,2.54-38.5,5.27-57.729,8.071-4.981.726-10,1.2-14.945,2.209-1.741.354-3.342-.264-4.969-.7,10.629-2.729,21.477-4.37,32.221-6.525,14.313-2.871,28.667-5.539,42.964-8.486,3.4-.7,6.3-.733,8.935,1.84A36.167,36.167,0,0,0,960.738,244C959.532,245.92,957.977,247.041,955.589,246.262Z" transform="translate(-679.007 -238.745)" fill="#4c4d52"/>
    <path id="Path_17145" data-name="Path 17145" d="M1010.425,278.564c1.45-2.779,6.006-4.548,9.482-3.684,1.9,7.693,2.88,15.554,4.244,23.344Z" transform="translate(-705.479 -245.642)" fill="#494c53"/>
    <path id="Path_17146" data-name="Path 17146" d="M972.518,247.512l5.148-2.259,3.521,2.395a142.945,142.945,0,0,1-20.458,6.725Z" transform="translate(-695.935 -239.995)" fill="#0e1012"/>
    <path id="Path_17147" data-name="Path 17147" d="M647.443,489.844c3.368-2.336,5.063-6.161,8.115-8.922-1.824,4.89-2.153,10.227-5.033,14.722A22.886,22.886,0,0,1,647.443,489.844Z" transform="translate(-635.771 -285.254)" fill="#0f1012"/>
    <path id="Path_17148" data-name="Path 17148" d="M830.386,510.054q7.851-7.657,15.706-15.308c1.027-1,2.125-1.922,3.191-2.881,2.387-.28,3.612,1.648,5.124,2.856C869.1,506.457,883.219,518.889,898,530.514c1.545,1.074,2.576,2.8,4.408,3.516.831,1.443,2.286,2.11,3.629,2.914-1.921-.093-2.682.743-2.973,2.737-1.8,12.24-3.823,24.445-5.642,36.681-2.3,15.446-4.441,30.914-6.707,46.365-.976,6.655-2.38,13.248-2.877,19.971-.044.586.061,1.362-.7,1.482-.987.157-1.474-.687-1.939-1.371-4.68-6.88-9.294-13.807-14.022-20.654Q844.55,583.6,817.861,545.086c-.887-1.281-1.806-2.539-2.711-3.807a7.747,7.747,0,0,1,1.263-4.08C821.073,528.151,825.24,518.851,830.386,510.054Z" transform="translate(-667.976 -287.35)" fill="#1d1c20"/>
    <path id="Path_17149" data-name="Path 17149" d="M698.65,494.58c3.468,3.834,7.427,7.337,10.279,11.585,3.519,5.24,9,6.589,14.132,8.758,8.671,3.662,17.437,7.1,26.092,10.8,1.888.806,4.517.467,5.473,3.017Q741.919,541.119,729.21,553.5c-2.928-3.576-3.475-8.164-5.1-12.279-3.324-8.415-6.25-16.988-9.366-25.486a5.664,5.664,0,0,0-1.179-2.181c-5.19-4.878-9.587-10.606-15.579-14.628C696.87,497.269,696.163,495.681,698.65,494.58Z" transform="translate(-645.281 -287.877)" fill="#494c53"/>
    <path id="Path_17150" data-name="Path 17150" d="M997.294,545.711Q986.67,561.459,976.03,577.2a8.157,8.157,0,0,1-1.294,1.226l-13.818-25.445c.237-1.708,1.587-1.926,2.915-2.174q15.224-2.844,30.449-5.68C995.335,544.928,996.458,544.659,997.294,545.711Z" transform="translate(-695.972 -297.548)" fill="#494c53"/>
    <path id="Path_17151" data-name="Path 17151" d="M826.063,514.384c-4.1,10.888-10.016,20.885-15.235,31.224l-18.2-10.855c3.279-3.294,7.664-4.829,11.531-7.179C811.443,523.149,819.055,519.269,826.063,514.384Z" transform="translate(-663.653 -291.68)" fill="#494c53"/>
    <path id="Path_17152" data-name="Path 17152" d="M907.241,510.767c-2.678.891-3.086-1.673-4.384-2.882-4.876-4.478-9.942-8.735-15.1-12.886-7.86-6.327-15.33-13.125-23.3-19.325-3.409-2.653-6.638-5.543-10.366-7.77l-7.213-11.66-6.568-10.9c1.577-1.257,2.973-.176,4.4.357,7.726,2.886,14.935,6.915,22.481,10.2.858.374,1.73,1.247,2.669.651.973-.617.539-1.754.429-2.691-1.285-10.932-2.746-21.842-4.228-32.749-.23-1.691-.549-3.353.122-5.008,3.682-9.015,7.264-18.071,11.053-27.043.538-1.273.785-2.858,2.46-3.333,2.643-1.779,5.777-.44,8.6-1.409,5.882-2.017,12.142-2.359,18.18-3.849,7.776-1.92,15.445-4.276,23.325-5.878,3.639-.74,8.071-.077,10.922-3.571a1.881,1.881,0,0,1,2.066-.011c8.152,4.7,16.93,8.2,25,13.057,2.454,6.7,6.726,12.438,10.006,18.7,3.956,7.555,8.429,14.839,12.368,22.413a38.923,38.923,0,0,0,2.863,4.165q.346.344.694.685c-14.418,7.486-28.849,14.944-43.232,22.494a4,4,0,0,1-4.657-.237c-2.367-1.658-4.875-3.123-7.166-4.874-2.757-2.108-5.442-1.264-8.2-.212q-18.541,7.06-37.084,14.113c-1.221.465-2.439.94-3.659,1.409-5.053,1.133-5.537,1.694-3.322,6.238,5.779,11.859,11.8,23.6,17.711,35.4C905.176,506.483,906.2,508.63,907.241,510.767Z" transform="translate(-672.81 -264.086)" fill="#0e1011"/>
    <path id="Path_17153" data-name="Path 17153" d="M1142.076,535.072c1.681,8.462,3.421,16.914,5.03,25.391q4.634,24.4,9.145,48.818c.394,2.118.707,4.254,1.057,6.379q-18.579-22.91-37.16-45.814-11.184-13.779-22.392-27.538c2.517-2.549,5.952-1.471,8.9-1.982C1118.408,538.282,1130.259,536.777,1142.076,535.072Z" transform="translate(-722.25 -295.653)" fill="#494c53"/>
    <path id="Path_17155" data-name="Path 17155" d="M697.4,493.383c-1.311,1.28-.494,2.886-.663,4.341-.989,5.673-2.017,11.339-2.955,17.02-1.029,6.215-1.975,12.443-3.311,18.617.807-13.35,2.023-26.65,2.538-39.995a4.322,4.322,0,0,0,.062-.677c1.72-5.125.779-4.343,9.7-4.244C701.611,490.933,698.874,491.508,697.4,493.383Z" transform="translate(-644.034 -286.679)" fill="#0e1012"/>
    <path id="Path_17156" data-name="Path 17156" d="M701.75,433.722l16.017-23.967c4.923-1.529,9.855-3.035,14.765-4.6,1.21-.387,2.365-1,2.685.951-3.891,13.285-7.842,26.552-11.615,39.87-.648,2.286-2.353,2.906-4.038,3.7-7.857,3.694-15.746,7.319-23.624,10.968-1.286.494-2.353,1.038-1.677-1.317,1.608-5.608,3.009-11.275,4.469-16.925A33.736,33.736,0,0,1,701.75,433.722Z" transform="translate(-644.722 -270.625)" fill="#1a1c1d"/>
    <path id="Path_17157" data-name="Path 17157" d="M857.37,491.007c2.932.389,4.848,2.453,7.018,4.157q12.552,9.851,24.573,20.343c4.867,4.259,10.223,7.952,14.9,12.463.952.917,2.209,1.477,2.267,3.019-3.365-1.431-5.986-3.977-8.684-6.269-13.19-11.2-26.44-22.329-40.055-33.014A4.378,4.378,0,0,0,857.37,491.007Z" transform="translate(-676.086 -287.19)" fill="#0e1011"/>
    <path id="Path_17158" data-name="Path 17158" d="M877.108,386.01,864.574,416.5c-1.954,1.011-2.546-.633-3.253-1.778q-6.288-10.185-12.034-20.686c-2.1-3.819-4.77-7.282-6.705-11.2-.853-1.727-2.648-2.458-4.326-3.133-3.037-1.222-5.906-2.788-8.853-4.191-1.1-.522-2.676-.783-2.577-2.587a1.531,1.531,0,0,0,1.468-.736c3.858,1.931,7.721,3.853,11.572,5.8a6.77,6.77,0,0,0,3.122.765c8.672.01,17.352-.232,26,.725,2.105,1.278,4.185,2.6,6.328,3.815C876.421,383.919,877.252,384.61,877.108,386.01Z" transform="translate(-670.219 -264.372)" fill="#494c53"/>
    <path id="Path_17159" data-name="Path 17159" d="M875.848,276.79q19.059,8.07,38.125,16.133a24.208,24.208,0,0,0,10.878,2.018c2.926-.173,5.718.621,8.586.8.89.057,1.208.657,1.332,1.432-.788,1.967-1.432,4.006-2.4,5.882-1.352,2.637-4.007,1.961-6.294,2.135-3.379.5-5.442-.685-6.226-4.243-.963-4.369-4.013-6.474-8.263-7.863-11.074-3.621-21.986-7.734-32.976-11.61-1.346-.475-2.78-.7-4.173-1.044C873.453,278.657,873.65,277.337,875.848,276.79Z" transform="translate(-679.256 -246.052)" fill="#484b52"/>
    <path id="Path_17160" data-name="Path 17160" d="M871.07,276.035a4.105,4.105,0,0,0-1.407,3.644c-3.964,6.258-6.342,13.287-9.066,20.07A23.517,23.517,0,0,1,849.3,312.2c-.494-.267-.28-.666-.03-.847,7.434-5.379,9.768-13.825,13.017-21.7,1.56-3.78,2.9-7.647,4.346-11.476a7.773,7.773,0,0,0,1.553-3.59c4.656-.01,9.036-1.92,13.765-1.719Z" transform="translate(-674.478 -245.296)" fill="#0e1012"/>
    <path id="Path_17161" data-name="Path 17161" d="M991.365,380.74c-8.074-3.808-16.134-7.641-23.888-12.083-.935-.536-1.969-.9-2.958-1.341-.269-.542-.5-1.035-.054-1.651,2.478-3.4,5.181-6.669,7.309-10.277,2.667-4.519,7.148-3,10.9-3.742,2.322-.456,4.8-.08,7.215-.078.41,8.853,1.588,17.627,2.657,26.414.13,1.069.165,2.15.243,3.225C992.071,381.795,991.8,381.021,991.365,380.74Z" transform="translate(-696.605 -260.384)" fill="#494c53"/>
    <path id="Path_17162" data-name="Path 17162" d="M997.816,387.709l1.425.468q11.2,20.219,22.38,40.45a37.8,37.8,0,0,1,1.653,3.984,12.634,12.634,0,0,1-4.423-5.125c-6.378-11.933-12.733-23.882-19.929-35.35A7.339,7.339,0,0,1,997.816,387.709Z" transform="translate(-703.056 -267.353)" fill="#0e1011"/>
    <path id="Path_17164" data-name="Path 17164" d="M808.967,368.542c3.115,2.325,6.814,3.5,10.258,5.177,3.129,1.523,5.773,2.99,7.625,6.589,2.618,5.088,5.837,9.94,8.674,14.973s5.9,9.944,8.828,14.934c.569.971,1.027,1.95,2.366,1.905a6.388,6.388,0,0,0-.454,3.49c1.454,10.518,2.784,21.054,4.169,31.581.188,1.426.562,2.832.672,4.261.068.892.421,2.032-.663,2.609-.969.515-1.777-.072-2.676-.521-8.584-4.292-17.248-8.417-26.118-12.09a6.585,6.585,0,0,0-1.782-.209c-4.39-3.289-9.747-3.865-14.806-5.276-13.234-3.69-26.573-7.052-39.647-11.239-4.966-1.589-8.36.679-12.184,2.344-5.741,2.5-11.36,5.281-17.026,7.957-.68.322-1.531.689-2.028.161-.787-.835,0-1.813.291-2.657q6.8-19.47,13.672-38.913c4.869-13.727,9.891-27.4,14.631-41.169,1.1-3.181,2.048-3.822,5.31-2.283C781.591,356.544,795.031,363.1,808.967,368.542Z" transform="translate(-652.361 -259.99)" fill="#36383d"/>
    <path id="Path_17165" data-name="Path 17165" d="M887.369,456.674c-.449.98.789,2.939-.827,2.977-2.275.054-2.266-2.107-2.092-3.81.118-1.159-.786-3.262,1.133-3.208C888.1,452.7,887.043,455.14,887.369,456.674Z" transform="translate(-681.265 -279.821)" fill="#0e1011"/>
    <path id="Path_17166" data-name="Path 17166" d="M1007.141,420.541c-.956-1.651-1.358-3.28-3.206-3.974-1.047-.393-1.172-2.1-.5-2.875.79-.907,1.716.094,2.321.783C1007.2,416.119,1010.494,417.274,1007.141,420.541Z" transform="translate(-704.057 -272.273)" fill="#0e1011"/>
    <path id="Path_17167" data-name="Path 17167" d="M873.587,494.826c2.96-.417,4.975-.414,5.747,2.176.2.687.14,1.741-.743,1.728C876.221,498.7,875.5,496.487,873.587,494.826Z" transform="translate(-679.201 -287.885)" fill="#0e1011"/>
    <path id="Path_17168" data-name="Path 17168" d="M901.482,473h5.765c.517,0,1.029.139.967.74s-.72,1.524-1.007,1.226C905.533,473.232,903.064,475.16,901.482,473Z" transform="translate(-684.558 -283.732)" fill="#0e1011"/>
    <path id="Path_17169" data-name="Path 17169" d="M886.235,508.006a1.551,1.551,0,0,1-1.249-1.806c.046-.7.382-1.479,1.259-1.5,1.244-.036,1.169.954,1.17,1.785C887.417,507.226,887.322,507.958,886.235,508.006Z" transform="translate(-681.389 -289.82)" fill="#0e1011"/>
    <path id="Path_17170" data-name="Path 17170" d="M884.629,414.065c-.079-1.775.48-2.85,1.853-3.358.561-.207.836.258.847.782C887.364,413.124,886.33,413.75,884.629,414.065Z" transform="translate(-681.32 -271.76)" fill="#0e1011"/>
    <path id="Path_17171" data-name="Path 17171" d="M989.636,456.339c1.688-1.445,3.086-1.672,5.15-2.155C993.247,456.074,992.137,457.072,989.636,456.339Z" transform="translate(-701.487 -280.119)" fill="#0e1011"/>
    <path id="Path_17172" data-name="Path 17172" d="M925.063,467.081a1.054,1.054,0,0,1-1.5.676c-.56-.215-1.113-.613-.866-1.32s.918-.629,1.5-.525A.981.981,0,0,1,925.063,467.081Z" transform="translate(-688.619 -282.358)" fill="#0e1011"/>
  </g>
</svg>
