<svg xmlns="http://www.w3.org/2000/svg" width="30" height="24" viewBox="0 0 30 24">
  <path id="ship" d="M23.279,17.467l3.282-3.282a1.5,1.5,0,0,0-.6-2.489L24,11.067V4.5A1.5,1.5,0,0,0,22.5,3h-3V1.125A1.125,1.125,0,0,0,18.375,0h-6.75A1.125,1.125,0,0,0,10.5,1.125V3h-3A1.5,1.5,0,0,0,6,4.5v6.567l-1.959.63a1.5,1.5,0,0,0-.6,2.489l3.282,3.282A5.663,5.663,0,0,1,1.125,21,1.125,1.125,0,0,0,0,22.125v.75A1.125,1.125,0,0,0,1.125,24,8.646,8.646,0,0,0,7.84,21.216,4.507,4.507,0,0,0,12,24h6a4.507,4.507,0,0,0,4.16-2.784A8.646,8.646,0,0,0,28.875,24,1.125,1.125,0,0,0,30,22.875v-.75A1.125,1.125,0,0,0,28.875,21,5.664,5.664,0,0,1,23.279,17.467ZM9,6H21v4.1L15.459,8.322a1.5,1.5,0,0,0-.918,0L9,10.1Z"/>
</svg>
